<?xml version="1.0" encoding="utf-8"?>
<?xml-stylesheet type="text/xsl" href="rss1.xsl"?>
<rss version="2.0" xmlns:atom="http://www.w3.org/2005/Atom" xmlns:content="http://purl.org/rss/1.0/modules/content/" xmlns:dc="http://purl.org/dc/elements/1.1/" xmlns:media="http://search.yahoo.com/mrss/">
<channel>
 <title>Getty</title>
 <link>http://www.gettyimg.com/</link>
 <atom:link href="http://www.gettyimg.com/" rel="self" type="application/rss+xml" />

 
                <item>
                <title><![CDATA[【Requests】[REQ VID] - Megadeth - Movistar Arena Argentina - 13-14.04.2024 - 1080p VEEPS]]></title>
                <link><![CDATA[https://sharemania.us/threads/megadeth-movistar-arena-argentina-13-14-04-2024-1080p-veeps.242004/]]></link>
                <description><![CDATA[<article>
<blockquote class="messageText SelectQuoteContainer ugc baseHtml">
Hola es mi primera publicación y pedido nose si esta bien o no como lo hice...<br>
Queria saber si alguien va a poder obtener ambas transmisiones en la mejor resolución posible<br>
<br>
Megadeth va a transmitir en vivo a través de VEEPS sus primeros 2 shows en Buenos Aires Argentina..<br>
las fechas 13 y 14 de abril de 2024.<br>
<img src="https://coordenadacero.com.ar/wp-content/uploads/2024/03/432458911_969096564579754_241035854916215733_n.jpg.webp" class="bbCodeImage LbImage" alt="[​IMG]" data-url="https://coordenadacero.com.ar/wp-content/uploads/2024/03/432458911_969096564579754_241035854916215733_n.jpg.webp" style="">
<div class="messageTextEndMarker">&nbsp;</div>
</blockquote>
</article>]]></description>
                <author><![CDATA[codubirey]]></author>
                </item>

                
                <item>
                <title><![CDATA[【Requests】[REQ AUD] - Rina Sawayama - This Hell (feat. CHANMINA - Gyarupi Remix - Spotify Singles)]]></title>
                <link><![CDATA[https://sharemania.us/threads/rina-sawayama-this-hell-feat-chanmina-gyarupi-remix-spotify-singles.242003/]]></link>
                <description><![CDATA[<article>
<blockquote class="messageText SelectQuoteContainer ugc baseHtml">
ogg file or mp3 rip please
<div class="messageTextEndMarker">&nbsp;</div>
</blockquote>
</article>]]></description>
                <author><![CDATA[kiwis]]></author>
                </item>

                
                <item>
                <title><![CDATA[【Apple Music】WEB-RiP - Doja Cat - MASC (feat. Teezo Touchdown) [Apple HD Music Video]]]></title>
                <link><![CDATA[https://sharemania.us/threads/doja-cat-masc-feat-teezo-touchdown-apple-hd-music-video.242002/]]></link>
                <description><![CDATA[<article>
<blockquote class="messageText SelectQuoteContainer ugc baseHtml">
<span style="font-size: 22px"><b>Doja Cat - MASC (feat. Teezo Touchdown) [Apple HD Music Video]</b></span><br>
<br>
<img src="https://imgur.com/pJGF6Cw.jpg" class="bbCodeImage LbImage" alt="[​IMG]" data-url="https://imgur.com/pJGF6Cw.jpg" style=""><br>
<br>
<div class="bbCodeBlock bbCodeCode">
<div class="type">Code:</div>
<pre>General
Format                         : MPEG-4
Codec ID                       : M4V  (isom/iso4/M4V /mp42)
File size                      : 255 MiB
Duration                       : 3 min 26 s
Overall bit rate mode          : Variable
Overall bit rate               : 10.4 Mb/s
Movie name                     : MASC (feat. Teezo Touchdown)
Performer                      : Doja Cat
Genre                          : Rap
ContentType                    : Music Video
Recorded date                  : UTC 2024-04-05 07:00:00
Encoded date                   : UTC 2024-04-07 05:33:59
Tagged date                    : UTC 2024-04-07 05:33:59
Copyright                      : ℗ (C) 2024 Kemosabe Records/RCA Records
Cover                          : Yes
Rating                         : Explicit
GenreID                        : 1809
AppleStoreCountry              : United Kingdom
AlbumTitleID                   : 830588310
AppleStoreCatalogID            : 1739449294

Video
ID                             : 2
Format                         : AVC
Format/Info                    : Advanced Video Codec
Format profile                 : High@L4
Format settings                : CABAC / 4 Ref Frames
Format settings, CABAC         : Yes
Format settings, Reference fra : 4 frames
Format settings, GOP           : M=2, N=79
Codec ID                       : avc1
Codec ID/Info                  : Advanced Video Coding
Duration                       : 3 min 26 s
Bit rate                       : 10.1 Mb/s
Maximum bit rate               : 23.3 Mb/s
Width                          : 1 920 pixels
Height                         : 1 080 pixels
Display aspect ratio           : 16:9
Frame rate mode                : Constant
Frame rate                     : 23.976 (24000/1001) FPS
Color space                    : YUV
Chroma subsampling             : 4:2:0
Bit depth                      : 8 bits
Scan type                      : Progressive
Bits/(Pixel*Frame)             : 0.203
Stream size                    : 248 MiB (97%)
Title                          : Core Media Video
Encoded date                   : UTC 2024-04-05 20:50:50
Tagged date                    : UTC 2024-04-07 05:34:06
Color range                    : Limited
Color primaries                : BT.709
Transfer characteristics       : BT.709
Matrix coefficients            : BT.709
Codec configuration box        : avcC

Audio
ID                             : 1
Format                         : AAC LC
Format/Info                    : Advanced Audio Codec Low Complexity
Codec ID                       : mp4a-40-2
Duration                       : 3 min 26 s
Duration_LastFrame             : -10 ms
Bit rate mode                  : Variable
Bit rate                       : 265 kb/s
Maximum bit rate               : 390 kb/s
Channel(s)                     : 2 channels
Channel layout                 : L R
Sampling rate                  : 48.0 kHz
Frame rate                     : 46.875 FPS (1024 SPF)
Compression mode               : Lossy
Stream size                    : 6.47 MiB (3%)
Title                          : Core Media Audio
Encoded date                   : UTC 2024-04-05 20:50:37
Tagged date                    : UTC 2024-04-07 05:34:06
</pre>
</div>
<div class="bbCodeBlock bbCodeVfcHH HiddenContent">
<div class="attribution type">Hidden Content:</div>
<blockquote>You must reply before you can see the hidden data contained here.</blockquote>
</div>
<div class="messageTextEndMarker">&nbsp;</div>
</blockquote>
</article>]]></description>
                <author><![CDATA[abby0511]]></author>
                </item>

                
                <item>
                <title><![CDATA[【Singles (lossy)】MP3 - Dua Lipa - Illusion [Deezer MP3 320kpbs]]]></title>
                <link><![CDATA[https://sharemania.us/threads/dua-lipa-illusion-deezer-mp3-320kpbs.242001/]]></link>
                <description><![CDATA[<article>
<blockquote class="messageText SelectQuoteContainer ugc baseHtml">
<div style="text-align: center"><img src="https://is1-ssl.mzstatic.com/image/thumb/Music221/v4/c2/e2/da/c2e2daaa-8085-9526-be0a-da66e434db7d/5021732278241.jpg/99999x99999bb.png" class="bbCodeImage LbImage" alt="[​IMG]" data-url="https://is1-ssl.mzstatic.com/image/thumb/Music221/v4/c2/e2/da/c2e2daaa-8085-9526-be0a-da66e434db7d/5021732278241.jpg/99999x99999bb.png" style=""> <br>
<br>
<div class="bbCodeBlock bbCodeVfcHH HiddenContent">
<div class="attribution type">Hidden Content:</div>
<blockquote>You must reply before you can see the hidden data contained here.</blockquote>
</div></div>
<div class="messageTextEndMarker">&nbsp;</div>
</blockquote>
</article>]]></description>
                <author><![CDATA[aove]]></author>
                </item>

                </channel></rss>